<svg width="120" height="120" viewBox="0 0 120 120" fill="none" xmlns="http://www.w3.org/2000/svg">
  <!-- S Letter with modern, tech-inspired design -->
  <path d="M30 35C30 25.0589 38.0589 17 48 17H72C81.9411 17 90 25.0589 90 35V40C90 49.9411 81.9411 58 72 58H48C38.0589 58 30 66.0589 30 76V80C30 89.9411 38.0589 97 48 97H72C81.9411 97 90 89.9411 90 80V75" 
        stroke="currentColor" 
        stroke-width="12" 
        stroke-linecap="round" 
        fill="none"/>
  
  <!-- Signal waves/forge elements -->
  <circle cx="95" cy="25" r="3" fill="currentColor" opacity="0.8"/>
  <circle cx="105" cy="35" r="2" fill="currentColor" opacity="0.6"/>
  <circle cx="100" cy="45" r="2.5" fill="currentColor" opacity="0.7"/>
  
  <!-- Bottom signal elements -->
  <circle cx="25" cy="75" r="3" fill="currentColor" opacity="0.8"/>
  <circle cx="15" cy="85" r="2" fill="currentColor" opacity="0.6"/>
  <circle cx="20" cy="95" r="2.5" fill="currentColor" opacity="0.7"/>
</svg>